<?xml version="1.0" encoding="utf-8"?>
<svg width="400" height="225" viewBox="0 0 400 225" fill="none" xmlns="http://www.w3.org/2000/svg">
  <rect width="400" height="225" fill="#242424"/>
  <path d="M330 140C330 151.046 321.046 160 310 160H90C78.9543 160 70 151.046 70 140V85C70 73.9543 78.9543 65 90 65H310C321.046 65 330 73.9543 330 85V140Z" fill="#4A4A4A"/>
  <circle cx="120" cy="150" r="20" fill="#333333" stroke="#555555" stroke-width="4"/>
  <circle cx="280" cy="150" r="20" fill="#333333" stroke="#555555" stroke-width="4"/>
  <path d="M100 120L300 120L320 90L80 90L100 120Z" fill="#666666"/>
  <rect x="90" y="120" width="220" height="5" fill="#888888"/>
  <rect x="120" y="90" width="160" height="30" rx="5" fill="#222222"/>
  <text x="200" y="110" font-family="Arial" font-size="12" text-anchor="middle" fill="#CCCCCC">CAR 5</text>
</svg>
