<?xml version="1.0" encoding="utf-8"?>
<svg width="400" height="225" viewBox="0 0 400 225" fill="none" xmlns="http://www.w3.org/2000/svg">
  <rect width="400" height="225" fill="#242424"/>
  <path d="M300 135C300 146.046 291.046 155 280 155H120C108.954 155 100 146.046 100 135V90C100 78.9543 108.954 70 120 70H280C291.046 70 300 78.9543 300 90V135Z" fill="#444444"/>
  <circle cx="130" cy="145" r="18" fill="#333333" stroke="#555555" stroke-width="4"/>
  <circle cx="270" cy="145" r="18" fill="#333333" stroke="#555555" stroke-width="4"/>
  <path d="M130 120L270 120L290 100L110 100L130 120Z" fill="#666666"/>
  <rect x="120" y="120" width="160" height="5" fill="#888888"/>
  <rect x="150" y="95" width="100" height="25" rx="5" fill="#222222"/>
  <text x="200" y="112" font-family="Arial" font-size="12" text-anchor="middle" fill="#CCCCCC">CAR 1</text>
</svg>
