<?xml version="1.0" encoding="utf-8"?>
<svg width="400" height="225" viewBox="0 0 400 225" fill="none" xmlns="http://www.w3.org/2000/svg">
  <rect width="400" height="225" fill="#242424"/>
  <path d="M310 140C310 151.046 301.046 160 290 160H110C98.9543 160 90 151.046 90 140V85C90 73.9543 98.9543 65 110 65H290C301.046 65 310 73.9543 310 85V140Z" fill="#3A3A3A"/>
  <circle cx="130" cy="150" r="20" fill="#333333" stroke="#555555" stroke-width="4"/>
  <circle cx="270" cy="150" r="20" fill="#333333" stroke="#555555" stroke-width="4"/>
  <path d="M120 120L280 120L305 95L95 95L120 120Z" fill="#666666"/>
  <rect x="110" y="120" width="180" height="5" fill="#888888"/>
  <rect x="130" y="95" width="140" height="25" rx="5" fill="#222222"/>
  <text x="200" y="112" font-family="Arial" font-size="12" text-anchor="middle" fill="#CCCCCC">CAR 2</text>
</svg>
