<?xml version="1.0" encoding="utf-8"?>
<svg width="400" height="225" viewBox="0 0 400 225" fill="none" xmlns="http://www.w3.org/2000/svg">
  <rect width="400" height="225" fill="#242424"/>
  <path d="M320 135C320 146.046 311.046 155 300 155H100C88.9543 155 80 146.046 80 135V90C80 78.9543 88.9543 70 100 70H300C311.046 70 320 78.9543 320 90V135Z" fill="#444444"/>
  <circle cx="120" cy="145" r="18" fill="#333333" stroke="#555555" stroke-width="4"/>
  <circle cx="280" cy="145" r="18" fill="#333333" stroke="#555555" stroke-width="4"/>
  <path d="M110 115L290 115L310 95L90 95L110 115Z" fill="#666666"/>
  <rect x="100" y="115" width="200" height="5" fill="#888888"/>
  <rect x="140" y="85" width="120" height="30" rx="5" fill="#222222"/>
  <text x="200" y="105" font-family="Arial" font-size="12" text-anchor="middle" fill="#CCCCCC">CAR 4</text>
</svg>
